<svg width="90" height="129" viewBox="0 0 90 129" fill="none" xmlns="http://www.w3.org/2000/svg">
<path d="M69.6067 91.123C69.6067 108.981 55.0812 123.457 37.1629 123.457C19.2447 123.457 4.7191 108.981 4.7191 91.123C4.7191 73.2655 19.2447 58.7891 37.1629 58.7891C55.0812 58.7891 69.6067 73.2655 69.6067 91.123Z" fill="#F44174"/>
<path d="M71.4607 32.9219C71.4607 50.2692 57.3501 64.332 39.9438 64.332C22.5375 64.332 8.42697 50.2692 8.42697 32.9219C8.42697 15.5745 22.5375 1.51172 39.9438 1.51172C57.3501 1.51172 71.4607 15.5745 71.4607 32.9219Z" fill="#F44174"/>
<path d="M45.5056 45.8555C45.5056 56.0598 37.2053 64.332 26.9663 64.332C16.7273 64.332 8.42697 56.0598 8.42697 45.8555C8.42697 35.6511 16.7273 27.3789 26.9663 27.3789C37.2053 27.3789 45.5056 35.6511 45.5056 45.8555Z" fill="#FEE1C7"/>
<path d="M45.5056 45.8555C45.5056 56.0598 37.2053 64.332 26.9663 64.332C16.7273 64.332 8.42697 56.0598 8.42697 45.8555C8.42697 35.6511 16.7273 27.3789 26.9663 27.3789C37.2053 27.3789 45.5056 35.6511 45.5056 45.8555Z" fill="#FEE1C7"/>
<path d="M45.5056 45.8555C45.5056 56.0598 37.2053 64.332 26.9663 64.332C16.7273 64.332 8.42697 56.0598 8.42697 45.8555C8.42697 35.6511 16.7273 27.3789 26.9663 27.3789C37.2053 27.3789 45.5056 35.6511 45.5056 45.8555Z" fill="#FEE1C7"/>
<path d="M45.5056 45.8555C45.5056 56.0598 37.2053 64.332 26.9663 64.332C16.7273 64.332 8.42697 56.0598 8.42697 45.8555C8.42697 35.6511 16.7273 27.3789 26.9663 27.3789C37.2053 27.3789 45.5056 35.6511 45.5056 45.8555Z" fill="#FEE1C7"/>
<path d="M45.5056 45.8555C45.5056 56.0598 37.2053 64.332 26.9663 64.332C16.7273 64.332 8.42697 56.0598 8.42697 45.8555C8.42697 35.6511 16.7273 27.3789 26.9663 27.3789C37.2053 27.3789 45.5056 35.6511 45.5056 45.8555Z" fill="#FEE1C7"/>
<path d="M84.4382 94.8184C84.4382 108.594 73.2327 119.762 59.4101 119.762C45.5875 119.762 34.382 108.594 34.382 94.8184C34.382 81.0425 45.5875 69.875 59.4101 69.875C73.2327 69.875 84.4382 81.0425 84.4382 94.8184Z" fill="#FEE1C7"/>
<path d="M84.4382 94.8184C84.4382 108.594 73.2327 119.762 59.4101 119.762C45.5875 119.762 34.382 108.594 34.382 94.8184C34.382 81.0425 45.5875 69.875 59.4101 69.875C73.2327 69.875 84.4382 81.0425 84.4382 94.8184Z" fill="#FEE1C7"/>
<path d="M84.4382 94.8184C84.4382 108.594 73.2327 119.762 59.4101 119.762C45.5875 119.762 34.382 108.594 34.382 94.8184C34.382 81.0425 45.5875 69.875 59.4101 69.875C73.2327 69.875 84.4382 81.0425 84.4382 94.8184Z" fill="#FEE1C7"/>
<path d="M84.4382 94.8184C84.4382 108.594 73.2327 119.762 59.4101 119.762C45.5875 119.762 34.382 108.594 34.382 94.8184C34.382 81.0425 45.5875 69.875 59.4101 69.875C73.2327 69.875 84.4382 81.0425 84.4382 94.8184Z" fill="#FEE1C7"/>
<path d="M84.4382 94.8184C84.4382 108.594 73.2327 119.762 59.4101 119.762C45.5875 119.762 34.382 108.594 34.382 94.8184C34.382 81.0425 45.5875 69.875 59.4101 69.875C73.2327 69.875 84.4382 81.0425 84.4382 94.8184Z" fill="#FEE1C7"/>
<path d="M0 129V0H45.2528C54.2697 0 61.7065 1.55371 67.5632 4.66114C73.42 7.72656 77.7809 11.8628 80.6461 17.0698C83.5112 22.2349 84.9438 27.9668 84.9438 34.2656C84.9438 39.8086 83.9537 44.3857 81.9733 47.9971C80.0351 51.6084 77.4649 54.4639 74.2626 56.5635C71.1025 58.6631 67.6685 60.2168 63.9607 61.2246V62.4844C67.9213 62.7363 71.9031 64.1221 75.9059 66.6416C79.9087 69.1611 83.2584 72.7725 85.9551 77.4756C88.6517 82.1787 90 87.9316 90 94.7344C90 101.201 88.5253 107.017 85.5758 112.182C82.6264 117.347 77.9705 121.441 71.6081 124.465C65.2458 127.488 56.9663 129 46.7697 129H0ZM15.6742 115.143H46.7697C57.0084 115.143 64.2767 113.169 68.5744 109.222C72.9143 105.232 75.0843 100.403 75.0843 94.7344C75.0843 90.3672 73.9677 86.3359 71.7346 82.6406C69.5014 78.9033 66.3202 75.9219 62.191 73.6963C58.0618 71.4287 53.1742 70.2949 47.5281 70.2949H15.6742V115.143ZM15.6742 56.6895H44.7472C49.4663 56.6895 53.7219 55.7656 57.514 53.918C61.3483 52.0703 64.382 49.4668 66.6152 46.1074C68.8904 42.748 70.0281 38.8008 70.0281 34.2656C70.0281 28.5967 68.0478 23.7886 64.0871 19.8413C60.1264 15.8521 53.8483 13.8574 45.2528 13.8574H15.6742V56.6895Z" fill="#FEE1C7"/>
</svg>
